# xmcd
#
# Track frame offsets: 
#        150
#        11114
#        22151
#        37443
#        48308
#        60528
#        70443
#        84626
#        99496
#        110506
#        122712
#        134903
#        147899
#        161729
#        172711
#        184898
#        195567
#        207959
#        218955
#        231251
#        241222
#        255015
#        264533
#        276921
#        286890
#        297511
#        308831
#        320579
#        331649
#        342091
#
# Disc length: 4714 seconds
#
# Revision: 1
# Processed by: cddbd v1.5.2PL0 Copyright (c) Steve Scherf et al.
# Submitted via: ExactAudioCopy v1.0b3
#
DISCID=cf12681e
DTITLE=Ford, Tennessee Ernie - Rock City Boogie
DYEAR=2004
DGENRE=Rockabilly
TTITLE0=I've Got The Milk 'Em In The Morning Blues
TTITLE1=Tennessee Border
TTITLE2=Philadelphia Lawyer
TTITLE3=Country Junction
TTITLE4=Smoky Mountain Boogie
TTITLE5=Anticipation Blues
TTITLE6=Mule Train
TTITLE7=The Cry Of The Wild Goose
TTITLE8=Feed In The Morning, Change 'Em In The Evening Blues
TTITLE9=I'll Never Be Free
TTITLE10=Ain't Nobody's Business But My Own
TTITLE11=Cincinnati Dancing Pig
TTITLE12=Bright Lights And Blond Haired Women
TTITLE13=I Ain't Gonna Let it Happen No More
TTITLE14=Shot-gun Boogie
TTITLE15=Tailor Made Woman
TTITLE16=She's My Baby
TTITLE17=Mister and Mississippi
TTITLE18=You're My Sugar
TTITLE19=Rock City Boogie
TTITLE20=Streamlined Cannonball
TTITLE21=Kissin' Bug Boogie
TTITLE22=Woman Is A Five Letter Word
TTITLE23=Hey Good Lookin'
TTITLE24=Cool Cool Kisses
TTITLE25=Blackberry Boogie
TTITLE26=I'm Hog Tied Over You
TTITLE27=Hey Mr Cotton Picker
TTITLE28=Catfish Boogie
TTITLE29=I Don't Know
EXTD=Proper Records Compilation
EXTT0=Tennesee Ernie Ford
EXTT1=Jimmy Work
EXTT2=Guthrie
EXTT3=Tennesee Ernie Ford 
EXTT4=Tennesee Ernie Ford and Cliffie Stone
EXTT5=Tennesee Ernie Ford
EXTT6=Glickman, Lange, Heath
EXTT7=Terry Gilkyson
EXTT8=Tennesee Ernie Ford
EXTT9=B. Benjamin, G. Weiss
EXTT10=Irving Taylor
EXTT11=Woods, Lewis
EXTT12=Kirk
EXTT13=Ernest J. Ford
EXTT14=Tennesee Ernie Ford
EXTT15=Jimmy Bryant, Bill Kemp
EXTT16=Ernest J. Ford
EXTT17=Irving Taylor
EXTT18=Irving Taylor, Hal Stanley
EXTT19=Joe Allison, Anita Kerr
EXTT20=Roy Acuff
EXTT21=Allan Roberts, Robert Allen
EXTT22=Singer, Zaret, Shaw
EXTT23=Hank Williams
EXTT24=Martin 
EXTT25=Ernest J. Ford
EXTT26=Tennesee Ernie Ford
EXTT27=Dok Stanford, Bob Mitchum
EXTT28=Ernest J. Ford
EXTT29=W. Mabon, J. Thomas
PLAYORDER=
